<svg width="243" height="65" viewBox="0 0 243 65" fill="none" xmlns="http://www.w3.org/2000/svg">
<path d="M29.7127 57.6759V46.9479L6.96575 46.936L6.12695 49.8395L8.97033 55.1724L15.5101 58.4314L23.4715 59.6165L29.1583 58.9173L29.7127 57.6759Z" fill="#F2DA2F"/>
<path d="M5.55849 41.8402C5.56987 41.8017 5.58124 41.7602 5.58977 41.7217C6.46553 38.5219 7.73936 36.1962 8.6862 34.7296C9.997 32.6972 11.0149 31.1625 12.9513 30.2856C14.3218 29.6634 15.4875 29.6752 17.5007 29.693C19.4313 29.7108 21.2937 29.7286 23.1874 30.8781C24.0717 31.4144 24.629 32.0276 25.7464 33.2483C27.0459 34.6704 27.9813 35.6955 28.5898 37.3961C29.1585 38.9871 29.1613 40.3885 29.1585 40.9514C29.15 42.2017 29.1471 42.8238 28.8741 43.3216C27.9074 45.0755 24.6802 43.8193 18.3537 44.2104C14.1796 44.4681 13.2925 45.1585 11.2452 44.5067C10.0823 44.1363 8.17724 43.2149 6.41151 43.0253C6.31199 43.0134 5.84283 42.966 5.27416 42.729C4.4183 42.3705 3.46577 41.6387 3.56813 41.2477C3.71599 40.6847 6.03618 40.898 6.69584 40.9514C9.33449 41.1647 14.4156 41.141 25.1778 40.0626" fill="#F2DA2F"/>
<path d="M223.594 34.1038V20.5493H210.443V14.4757H223.594V0.847168H229.778V14.4757H243V20.5493H229.778V34.1038H223.594Z" fill="white"/>
<path d="M49.0479 63.5262H69.8045L70.6718 40.0614L69.8187 32.6545L62.7103 28.2104L55.3175 28.5067L50.4838 31.7657L47.3561 37.9875L46.2188 62.2818L46.7874 63.1707L47.0149 63.5262H49.0479Z" fill="#21C61C"/>
<path d="M86.2246 57.676V32.3921L95.9774 29.1005C95.9774 29.1005 102.233 28.8042 102.517 28.8042C102.801 28.8042 111.616 29.3967 111.616 29.3967L112.384 31.604V57.676H86.2246Z" fill="#FF0413"/>
<path d="M168.395 30.7002H147.639V63.5273H168.395V30.7002Z" fill="#BE7EE8"/>
<path d="M192.619 30.7003L203.458 28.8042L211.135 29.3967L215.684 35.9148C215.684 35.9148 217.959 44.5067 217.959 45.6918C217.959 46.8769 216.253 52.2098 216.253 52.2098L213.125 54.58C213.125 54.58 209.997 57.5427 209.713 57.839C209.429 58.1352 201.467 61.098 201.467 61.098C201.467 61.098 195.78 59.6166 195.212 59.3203C194.643 59.024 188.103 52.8023 188.103 52.8023L186.682 44.2104L188.956 33.5446L192.619 30.7003Z" fill="#F79014"/>
<path d="M20.4012 63.5274C16.4205 63.5274 12.889 62.7512 9.80963 61.1928C6.72742 59.6373 4.32477 57.442 2.59316 54.6007C0.861542 51.7624 0 48.4412 0 44.64C0 40.8388 0.73359 37.5176 2.20361 34.5312C3.67079 31.5447 5.70949 29.1864 8.31686 27.4562C10.9214 25.7289 13.9553 24.8638 17.4157 24.8638C21.1575 24.8638 24.2739 25.7052 26.7647 27.3821C29.2526 29.062 31.1122 31.3196 32.3434 34.1608C33.5745 37.0021 34.1915 40.1722 34.1915 43.6771C34.1915 44.2222 34.1802 44.7881 34.1574 45.3807C34.1318 45.9732 34.075 46.4917 33.9811 46.9361H6.96911C7.20511 49.2589 7.93869 51.2202 9.17272 52.826C10.4039 54.4318 11.982 55.6406 13.8984 56.4554C15.8148 57.2701 17.9388 57.676 20.2619 57.676H29.7161V63.5274H20.404H20.4012ZM6.89518 42.1217H27.5807C27.5807 41.1854 27.484 40.184 27.2964 39.1234C27.1059 38.0627 26.7732 37.0258 26.3012 36.0125C25.8263 35.0022 25.198 34.0867 24.4189 33.272C23.6398 32.4572 22.6645 31.8025 21.5044 31.3107C20.3415 30.8189 18.9795 30.57 17.4157 30.57C15.7551 30.57 14.2993 30.9018 13.0425 31.5714C11.7858 32.238 10.7081 33.1268 9.80679 34.2378C8.90544 35.3489 8.21735 36.5962 7.74535 37.9768C7.2705 39.3604 6.98617 40.744 6.89233 42.1246L6.89518 42.1217Z" fill="white"/>
<path d="M42.5087 63.5274V41.6773C42.5087 38.3205 43.2309 35.3815 44.6754 32.8631C46.1198 30.3448 48.1215 28.3835 50.6806 26.9732C53.2396 25.563 56.154 24.8638 59.4239 24.8638C62.6938 24.8638 65.668 25.5689 68.2043 26.9732C70.7377 28.3805 72.7281 30.3448 74.1753 32.8631C75.6198 35.3815 76.342 38.3205 76.342 41.6773V63.5274H69.8022V41.7513C69.8022 39.4819 69.316 37.5176 68.3464 35.8614C67.374 34.2082 66.0945 32.9342 64.5079 32.0454C62.9184 31.1566 61.2266 30.7122 59.4239 30.7122C57.6212 30.7122 55.9294 31.1566 54.34 32.0454C52.7505 32.9342 51.471 34.2053 50.5014 35.8614C49.529 37.5176 49.0456 39.4789 49.0456 41.7513V63.5274H42.5059H42.5087Z" fill="white"/>
<path d="M86.2241 63.5277V57.6763H103.569C104.706 57.6763 105.69 57.4156 106.52 56.9001C107.347 56.3816 107.976 55.7032 108.402 54.8618C108.829 54.0233 109.042 53.1345 109.042 52.1953C109.042 51.3065 108.852 50.4799 108.473 49.7125C108.092 48.9481 107.512 48.3319 106.733 47.8608C105.951 47.3927 105.016 47.1557 103.924 47.1557H96.6024C94.2793 47.1557 92.2548 46.7468 90.5232 45.935C88.7916 45.1203 87.441 43.9234 86.4714 42.3442C85.499 40.7651 85.0156 38.8393 85.0156 36.5669C85.0156 34.6411 85.4649 32.8635 86.3662 31.234C87.2647 29.6045 88.5215 28.2831 90.1337 27.2698C91.743 26.2596 93.5912 25.7529 95.6783 25.7529H112.383V31.6043H96.318C94.848 31.6043 93.6879 32.0754 92.8349 33.0116C91.9819 33.9508 91.5554 35.0618 91.5554 36.3447C91.5554 37.6276 91.9933 38.6526 92.869 39.5681C93.7448 40.4836 94.9902 40.9369 96.5995 40.9369H103.566C106.17 40.9369 108.365 41.3695 110.14 42.2346C111.917 43.0997 113.267 44.3441 114.191 45.9736C115.116 47.6031 115.579 49.6029 115.579 51.9731C115.579 53.9996 115.104 55.8869 114.157 57.6378C113.208 59.3918 111.894 60.8109 110.211 61.8982C108.527 62.9856 106.574 63.5277 104.348 63.5277H86.2212H86.2241Z" fill="white"/>
<path d="M127.524 19.7533C126.339 19.7533 125.309 19.297 124.431 18.3845C123.552 17.472 123.117 16.3965 123.117 15.1611C123.117 13.9256 123.555 12.8531 124.431 11.9376C125.307 11.0221 126.339 10.5688 127.524 10.5688C128.71 10.5688 129.739 11.0251 130.618 11.9376C131.494 12.8531 131.932 13.9256 131.932 15.1611C131.932 16.3965 131.494 17.469 130.618 18.3845C129.742 19.3 128.71 19.7533 127.524 19.7533ZM124.183 63.5276V25.7528H130.794V63.5276H124.183Z" fill="white"/>
<path d="M141.101 63.5274V41.6773C141.101 38.3205 141.823 35.3815 143.267 32.8631C144.712 30.3448 146.713 28.3835 149.272 26.9732C151.831 25.563 154.746 24.8638 158.016 24.8638C161.286 24.8638 164.26 25.5689 166.796 26.9732C169.33 28.3805 171.32 30.3448 172.767 32.8631C174.212 35.3815 174.934 38.3205 174.934 41.6773V63.5274H168.394V41.7513C168.394 39.4819 167.908 37.5176 166.938 35.8614C165.966 34.2082 164.686 32.9342 163.1 32.0454C161.51 31.1566 159.818 30.7122 158.016 30.7122C156.213 30.7122 154.521 31.1566 152.932 32.0454C151.342 32.9342 150.063 34.2053 149.093 35.8614C148.121 37.5176 147.637 39.4789 147.637 41.7513V63.5274H141.098H141.101Z" fill="white"/>
<path d="M200.384 64.4167C196.876 64.4167 193.845 63.5398 191.286 61.7858C188.727 60.0319 186.759 57.6499 185.386 54.6397C184.009 51.6296 183.324 48.2965 183.324 44.6405C183.324 40.9845 184.081 37.5922 185.599 34.6028C187.114 31.6164 189.295 29.2462 192.139 27.4922C194.982 25.7413 198.394 24.8613 202.375 24.8613C206.356 24.8613 209.506 25.7264 212.256 27.4537C215.002 29.184 217.123 31.5275 218.619 34.4902C220.115 37.4529 220.86 40.7623 220.86 44.4153V63.525H214.249V55.8219H214.107C213.396 57.2558 212.435 58.6246 211.229 59.9341C210.021 61.2437 208.517 62.3162 206.714 63.1576C204.911 63.996 202.804 64.4167 200.387 64.4167H200.384ZM202.09 58.5654C204.459 58.5654 206.557 57.961 208.38 56.7522C210.203 55.5434 211.624 53.8635 212.645 51.7155C213.663 49.5675 214.175 47.1588 214.175 44.4924C214.175 41.8259 213.689 39.5298 212.719 37.4559C211.747 35.382 210.362 33.7406 208.562 32.5318C206.759 31.323 204.652 30.7186 202.235 30.7186C199.676 30.7186 197.484 31.3379 195.662 32.5703C193.836 33.8058 192.437 35.4709 191.468 37.5714C190.495 39.672 190.012 42.0511 190.012 44.7175C190.012 47.384 190.484 49.6179 191.434 51.7155C192.38 53.8161 193.754 55.4812 195.556 56.7166C197.356 57.9521 199.537 58.5683 202.096 58.5683L202.09 58.5654Z" fill="white"/>
<path d="M127.383 20.1052C129.896 20.1052 131.933 17.9829 131.933 15.3649C131.933 12.7468 129.896 10.6245 127.383 10.6245C124.871 10.6245 122.834 12.7468 122.834 15.3649C122.834 17.9829 124.871 20.1052 127.383 20.1052Z" fill="#E53CC6" stroke="white" stroke-width="2" stroke-miterlimit="10"/>
</svg>
